<svg width="151" height="49" viewBox="0 0 151 49" fill="none" xmlns="http://www.w3.org/2000/svg">
<path d="M10.1545 48.9976C9.76594 48.9976 9.38687 48.9926 9.00142 48.9839C8.20298 48.9735 7.4064 48.9037 6.61822 48.7751C5.88328 48.6479 5.17132 48.4113 4.50584 48.0731C3.84643 47.7378 3.245 47.2981 2.72459 46.7708C2.1966 46.2498 1.75702 45.6456 1.42327 44.982C1.08587 44.314 0.852378 43.5981 0.730912 42.8591C0.599783 42.0651 0.528856 41.2621 0.518743 40.4573C0.510583 40.1871 0.5 39.2878 0.5 39.2878V9.69624C0.5 9.69624 0.51122 8.81057 0.518743 8.55028C0.528459 7.74673 0.599003 6.94508 0.729765 6.15229C0.85147 5.41126 1.08516 4.69327 1.42276 4.02317C1.75522 3.36001 2.19231 2.75526 2.71706 2.23236C3.24126 1.7045 3.84464 1.26253 4.5052 0.922561C5.16917 0.585533 5.87979 0.350669 6.61325 0.225837C7.40403 0.0959714 8.20339 0.0257908 9.00461 0.0158841L10.1551 0H141.191L142.355 0.0162685C143.149 0.0257448 143.941 0.0953713 144.725 0.224556C145.465 0.350989 146.183 0.587531 146.855 0.926404C148.178 1.61152 149.255 2.69544 149.934 4.02624C150.266 4.69175 150.497 5.40392 150.617 6.13858C150.749 6.93787 150.823 7.74579 150.838 8.55591C150.842 8.91869 150.842 9.30836 150.842 9.69624C150.852 10.1766 150.852 10.6338 150.852 11.0948V37.9039C150.852 38.3693 150.852 38.8234 150.842 39.2812C150.842 39.6978 150.842 40.0794 150.837 40.4721C150.822 41.2679 150.749 42.0614 150.619 42.8464C150.5 43.5908 150.268 44.3123 149.93 44.9857C149.594 45.6421 149.157 46.2411 148.636 46.7607C148.115 47.2908 147.512 47.733 146.851 48.0705C146.182 48.4113 145.465 48.6487 144.725 48.7748C143.936 48.9041 143.14 48.974 142.341 48.9837C141.96 48.9927 141.578 48.9973 141.197 48.9974L139.815 49L10.1545 48.9976Z" fill="black"/>
<path d="M30.9685 24.884C30.9823 23.8149 31.2649 22.7666 31.7903 21.8367C32.3156 20.9067 33.0665 20.1254 33.9732 19.5654C33.3972 18.739 32.6374 18.0589 31.754 17.5791C30.8706 17.0993 29.8881 16.833 28.8843 16.8015C26.7431 16.5756 24.6675 18.0886 23.5763 18.0886C22.4642 18.0886 20.7843 16.8239 18.9754 16.8613C17.8053 16.8992 16.6649 17.241 15.6654 17.8534C14.6659 18.4658 13.8414 19.3278 13.2721 20.3555C10.8061 24.6449 12.6455 30.9486 15.0078 34.4157C16.1896 36.1135 17.5708 38.0099 19.3782 37.9426C21.1467 37.8689 21.8071 36.8096 23.9421 36.8096C26.0572 36.8096 26.6768 37.9426 28.5208 37.8998C30.4186 37.8689 31.6142 36.1946 32.7546 34.4808C33.6038 33.2711 34.2572 31.9341 34.6907 30.5193C33.5881 30.0508 32.6472 29.2666 31.9853 28.2645C31.3234 27.2624 30.9698 26.0867 30.9685 24.884ZM27.4856 14.5212C28.5203 13.2732 29.0301 11.6692 28.9066 10.0498C27.3258 10.2166 25.8655 10.9757 24.8168 12.1757C24.304 12.762 23.9113 13.444 23.6611 14.1828C23.4109 14.9217 23.3081 15.7028 23.3585 16.4816C24.1492 16.4898 24.9315 16.3176 25.6464 15.978C26.3613 15.6384 26.9901 15.1403 27.4856 14.5212V14.5212ZM53.3246 33.6447H47.2892L45.8399 37.9441H43.2834L49.0001 22.0369H51.656L57.3726 37.9441H54.7726L53.3246 33.6447ZM47.9143 31.6606H52.6983L50.3399 24.6828H50.2739L47.9143 31.6606ZM69.7184 32.146C69.7184 35.7499 67.7983 38.0654 64.9009 38.0654C64.1669 38.104 63.4369 37.9342 62.7945 37.5753C62.1522 37.2165 61.6233 36.6831 61.2687 36.0364H61.2138V41.7808H58.8443V26.3465H61.138V28.2756H61.1816C61.5526 27.6319 62.0903 27.1013 62.7375 26.7403C63.3848 26.3793 64.1174 26.2013 64.8573 26.2252C67.7871 26.2252 69.7184 28.552 69.7184 32.1459V32.146ZM67.2828 32.146C67.2828 29.798 66.0751 28.2543 64.2323 28.2543C62.4217 28.2543 61.204 29.8304 61.204 32.1459C61.204 34.4828 62.4217 36.0478 64.2323 36.0478C66.0751 36.0478 67.2828 34.5153 67.2828 32.1459V32.146ZM82.4241 32.146C82.4241 35.7499 80.5041 38.0654 77.6066 38.0654C76.8726 38.104 76.1426 37.9341 75.5003 37.5753C74.8579 37.2164 74.3291 36.6831 73.9745 36.0364H73.9196V41.7808H71.5501V26.3465H73.8436V28.2756H73.8872C74.2582 27.6319 74.7959 27.1013 75.4432 26.7403C76.0904 26.3793 76.823 26.2013 77.563 26.2252C80.4929 26.2252 82.4241 28.552 82.4241 32.1459V32.146ZM79.9886 32.146C79.9886 29.798 78.7808 28.2543 76.9379 28.2543C75.1274 28.2543 73.9097 29.8304 73.9097 32.1459C73.9097 34.4828 75.1274 36.0478 76.9379 36.0478C78.7808 36.0478 79.9886 34.5153 79.9886 32.1459V32.146ZM90.8216 33.5121C90.9972 35.0895 92.5225 36.1253 94.6069 36.1253C96.6041 36.1253 98.0411 35.0895 98.0411 33.6671C98.0411 32.4323 97.1744 31.6931 95.1225 31.1865L93.0703 30.6898C90.1629 29.9843 88.8131 28.6182 88.8131 26.4015C88.8131 23.6569 91.1939 21.7718 94.5745 21.7718C97.9202 21.7718 100.214 23.6569 100.291 26.4015H97.8991C97.7559 24.8141 96.4497 23.8558 94.5408 23.8558C92.6321 23.8558 91.3259 24.8254 91.3259 26.2364C91.3259 27.3611 92.1602 28.0228 94.2009 28.5293L95.9454 28.9597C99.194 29.7315 100.544 31.0426 100.544 33.3693C100.544 36.3453 98.1843 38.2093 94.4313 38.2093C90.9198 38.2093 88.5491 36.389 88.3959 33.5119L90.8216 33.5121ZM105.658 23.602V26.3465H107.853V28.2318H105.658V34.6254C105.658 35.6186 106.097 36.0815 107.062 36.0815C107.323 36.0769 107.583 36.0585 107.842 36.0264V37.9005C107.408 37.9818 106.967 38.0187 106.526 38.0104C104.189 38.0104 103.277 37.1285 103.277 34.8793V28.2318H101.598V26.3465H103.277V23.602H105.658ZM109.124 32.146C109.124 28.4969 111.264 26.204 114.599 26.204C117.946 26.204 120.076 28.4969 120.076 32.146C120.076 35.805 117.958 38.088 114.599 38.088C111.242 38.088 109.124 35.805 109.124 32.146ZM117.661 32.146C117.661 29.6429 116.519 28.1654 114.599 28.1654C112.679 28.1654 111.539 29.654 111.539 32.146C111.539 34.6592 112.679 36.1253 114.599 36.1253C116.519 36.1253 117.661 34.6592 117.661 32.146ZM122.029 26.3465H124.289V28.3205H124.344C124.497 27.704 124.856 27.1592 125.362 26.7776C125.868 26.396 126.489 26.201 127.121 26.2252C127.394 26.2243 127.666 26.254 127.933 26.314V28.5407C127.588 28.4349 127.228 28.3863 126.868 28.3969C126.524 28.3828 126.181 28.4438 125.862 28.5756C125.543 28.7074 125.257 28.9069 125.022 29.1604C124.788 29.4139 124.611 29.7154 124.503 30.0442C124.395 30.373 124.36 30.7213 124.399 31.0652V37.9441H122.029V26.3465ZM138.858 34.5378C138.539 36.6432 136.498 38.088 133.887 38.088C130.529 38.088 128.444 35.8276 128.444 32.201C128.444 28.5633 130.54 26.204 133.787 26.204C136.981 26.204 138.99 28.4081 138.99 31.9246V32.7402H130.836V32.884C130.799 33.3108 130.852 33.7408 130.992 34.1454C131.133 34.55 131.357 34.9199 131.651 35.2306C131.945 35.5413 132.301 35.7857 132.696 35.9475C133.091 36.1093 133.516 36.1848 133.942 36.1691C134.502 36.2218 135.064 36.0915 135.544 35.7976C136.024 35.5037 136.397 35.0618 136.608 34.5378H138.858ZM130.848 31.0764H136.619C136.64 30.6926 136.582 30.3086 136.449 29.9484C136.315 29.5881 136.109 29.2595 135.843 28.9831C135.577 28.7067 135.258 28.4885 134.904 28.3422C134.55 28.1959 134.17 28.1246 133.787 28.1329C133.401 28.1306 133.019 28.2051 132.662 28.352C132.305 28.499 131.98 28.7156 131.707 28.9893C131.434 29.2629 131.217 29.5883 131.07 29.9465C130.922 30.3047 130.847 30.6888 130.848 31.0764V31.0764ZM47.6173 10.0635C48.1141 10.0277 48.6126 10.1031 49.0769 10.2843C49.5411 10.4654 49.9596 10.7479 50.3021 11.1112C50.6445 11.4745 50.9024 11.9097 51.0572 12.3853C51.212 12.8609 51.2598 13.3651 51.1971 13.8615C51.1971 16.3033 49.8835 17.707 47.6173 17.707H44.8692V10.0634L47.6173 10.0635ZM46.0509 16.626H47.4853C47.8403 16.6473 48.1955 16.5888 48.5252 16.4548C48.8548 16.3207 49.1506 16.1146 49.3909 15.8512C49.6312 15.5879 49.8101 15.2741 49.9145 14.9326C50.0188 14.591 50.0461 14.2304 49.9943 13.877C50.0423 13.5249 50.0123 13.1666 49.9063 12.8275C49.8004 12.4885 49.6211 12.1772 49.3813 11.916C49.1415 11.6548 48.8472 11.4501 48.5194 11.3165C48.1916 11.183 47.8385 11.1239 47.4853 11.1436H46.0509V16.626ZM52.532 14.8203C52.4959 14.4412 52.539 14.0588 52.6587 13.6974C52.7783 13.3361 52.9718 13.0039 53.2268 12.7221C53.4817 12.4403 53.7924 12.2151 54.1391 12.0611C54.4857 11.907 54.8605 11.8274 55.2396 11.8274C55.6186 11.8274 55.9935 11.907 56.3401 12.0611C56.6867 12.2151 56.9975 12.4403 57.2524 12.7221C57.5073 13.0039 57.7008 13.3361 57.8205 13.6974C57.9401 14.0588 57.9833 14.4412 57.9472 14.8203C57.984 15.1998 57.9415 15.5829 57.8222 15.9449C57.7029 16.3069 57.5095 16.6398 57.2545 16.9222C56.9995 17.2046 56.6885 17.4303 56.3415 17.5848C55.9945 17.7392 55.6191 17.819 55.2396 17.819C54.86 17.819 54.4847 17.7392 54.1377 17.5848C53.7906 17.4303 53.4796 17.2046 53.2246 16.9222C52.9696 16.6398 52.7762 16.3069 52.657 15.9449C52.5377 15.5829 52.4951 15.1998 52.532 14.8203ZM56.7817 14.8203C56.7817 13.5699 56.2226 12.8387 55.2415 12.8387C54.2565 12.8387 53.7025 13.5699 53.7025 14.8203C53.7025 16.0806 54.2566 16.8062 55.2415 16.8062C56.2226 16.8062 56.7817 16.0756 56.7817 14.8203V14.8203ZM65.1456 17.7068H63.97L62.7834 13.4586H62.6938L61.5122 17.7068H60.3479L58.7654 11.9386H59.9146L60.9431 16.34H61.0278L62.2083 11.9386H63.2952L64.4757 16.34H64.5653L65.5888 11.9386H66.7219L65.1456 17.7068ZM68.053 11.9387H69.1438V12.855H69.2284C69.3721 12.5259 69.6143 12.25 69.9215 12.0657C70.2286 11.8815 70.5853 11.7982 70.9419 11.8273C71.2212 11.8062 71.5017 11.8485 71.7626 11.9511C72.0235 12.0537 72.258 12.214 72.4489 12.42C72.6397 12.626 72.782 12.8726 72.8651 13.1414C72.9483 13.4101 72.9702 13.6942 72.9292 13.9727V17.7067H71.796V14.2586C71.796 13.3317 71.395 12.8706 70.5571 12.8706C70.3674 12.8618 70.178 12.8942 70.002 12.9657C69.826 13.0373 69.6675 13.1462 69.5372 13.285C69.407 13.4238 69.3082 13.5893 69.2476 13.7701C69.187 13.9509 69.166 14.1427 69.1861 14.3324V17.7068H68.053V11.9387ZM74.7346 9.6869H75.8676V17.7068H74.7346V9.6869ZM77.4429 14.8203C77.4067 14.4412 77.4499 14.0587 77.5696 13.6973C77.6892 13.3359 77.8828 13.0036 78.1377 12.7218C78.3927 12.44 78.7035 12.2148 79.0502 12.0607C79.3968 11.9066 79.7717 11.827 80.1508 11.827C80.5299 11.827 80.9048 11.9066 81.2515 12.0607C81.5981 12.2148 81.9089 12.44 82.1639 12.7218C82.4189 13.0036 82.6124 13.3359 82.7321 13.6973C82.8517 14.0587 82.8949 14.4412 82.8588 14.8203C82.8955 15.1997 82.8527 15.5827 82.7333 15.9446C82.614 16.3065 82.4205 16.6392 82.1655 16.9216C81.9105 17.2039 81.5995 17.4295 81.2525 17.5838C80.9056 17.7382 80.5303 17.818 80.1508 17.818C79.7713 17.818 79.3961 17.7382 79.0491 17.5838C78.7021 17.4295 78.3911 17.2039 78.1361 16.9216C77.8811 16.6392 77.6877 16.3065 77.5683 15.9446C77.4489 15.5827 77.4062 15.1997 77.4429 14.8203V14.8203ZM81.6926 14.8203C81.6926 13.5699 81.1335 12.8387 80.1523 12.8387C79.1674 12.8387 78.6134 13.5699 78.6134 14.8203C78.6134 16.0806 79.1675 16.8062 80.1523 16.8062C81.1335 16.8062 81.6926 16.0756 81.6926 14.8203ZM84.0516 16.0757C84.0516 15.0373 84.8211 14.4387 86.187 14.3536L87.7422 14.2636V13.7657C87.7422 13.1564 87.3413 12.8125 86.5669 12.8125C85.9343 12.8125 85.496 13.0457 85.3702 13.4536H84.2732C84.389 12.4628 85.3167 11.8274 86.6192 11.8274C88.0586 11.8274 88.8704 12.5473 88.8704 13.7657V17.7068H87.7796V16.8962H87.69C87.508 17.187 87.2525 17.424 86.9495 17.5832C86.6465 17.7423 86.3069 17.8178 85.9654 17.8019C85.7244 17.8271 85.4808 17.8012 85.2503 17.7261C85.0199 17.6509 84.8076 17.528 84.6273 17.3653C84.447 17.2027 84.3026 17.0039 84.2034 16.7818C84.1043 16.5596 84.0525 16.3191 84.0516 16.0757V16.0757ZM87.7422 15.5827V15.1004L86.3402 15.1905C85.5495 15.2437 85.1908 15.5139 85.1908 16.0224C85.1908 16.5415 85.6392 16.8437 86.2555 16.8437C86.4361 16.8621 86.6186 16.8438 86.792 16.7899C86.9654 16.7359 87.1263 16.6475 87.265 16.5299C87.4037 16.4122 87.5174 16.2677 87.5994 16.105C87.6814 15.9423 87.73 15.7647 87.7422 15.5827V15.5827ZM90.3597 14.8203C90.3597 12.9976 91.2922 11.843 92.7429 11.843C93.1017 11.8264 93.4578 11.9128 93.7696 12.092C94.0814 12.2712 94.336 12.5358 94.5036 12.855H94.5882V9.68677H95.7213V17.7067H94.6355V16.7953H94.5459C94.3654 17.1123 94.102 17.3737 93.7842 17.5511C93.4664 17.7285 93.1063 17.8152 92.743 17.8018C91.2823 17.8018 90.3597 16.6471 90.3597 14.8202V14.8203ZM91.5302 14.8203C91.5302 16.0436 92.1042 16.7799 93.064 16.7799C94.0191 16.7799 94.6094 16.0331 94.6094 14.8252C94.6094 13.6231 94.0129 12.8656 93.064 12.8656C92.1103 12.8656 91.5302 13.6068 91.5302 14.8203ZM100.409 14.8203C100.373 14.4412 100.416 14.0588 100.536 13.6974C100.656 13.3361 100.849 13.0039 101.104 12.7221C101.359 12.4403 101.67 12.2151 102.016 12.0611C102.363 11.907 102.738 11.8274 103.117 11.8274C103.496 11.8274 103.871 11.907 104.217 12.0611C104.564 12.2151 104.875 12.4403 105.13 12.7221C105.385 13.0039 105.578 13.3361 105.698 13.6974C105.817 14.0588 105.861 14.4412 105.825 14.8203C105.861 15.1998 105.819 15.5829 105.7 15.9449C105.58 16.3069 105.387 16.6398 105.132 16.9222C104.877 17.2046 104.566 17.4303 104.219 17.5848C103.872 17.7392 103.497 17.819 103.117 17.819C102.737 17.819 102.362 17.7392 102.015 17.5848C101.668 17.4303 101.357 17.2046 101.102 16.9222C100.847 16.6398 100.654 16.3069 100.534 15.9449C100.415 15.5829 100.372 15.1998 100.409 14.8203V14.8203ZM104.659 14.8203C104.659 13.5699 104.1 12.8387 103.119 12.8387C102.134 12.8387 101.58 13.5699 101.58 14.8203C101.58 16.0806 102.134 16.8062 103.119 16.8062C104.1 16.8062 104.659 16.0756 104.659 14.8203ZM107.345 11.9387H108.436V12.855H108.52C108.664 12.5259 108.906 12.25 109.213 12.0657C109.521 11.8815 109.877 11.7982 110.234 11.8273C110.513 11.8062 110.794 11.8485 111.055 11.9511C111.315 12.0537 111.55 12.214 111.741 12.42C111.932 12.626 112.074 12.8726 112.157 13.1414C112.24 13.4101 112.262 13.6942 112.221 13.9727V17.7067H111.088V14.2586C111.088 13.3317 110.687 12.8706 109.849 12.8706C109.659 12.8618 109.47 12.8942 109.294 12.9657C109.118 13.0373 108.959 13.1462 108.829 13.285C108.699 13.4238 108.6 13.5893 108.54 13.7701C108.479 13.9509 108.458 14.1427 108.478 14.3324V17.7068H107.345L107.345 11.9387ZM118.624 10.5026V11.965H119.868V12.9238H118.624V15.8898C118.624 16.494 118.872 16.7587 119.436 16.7587C119.58 16.7582 119.724 16.7494 119.868 16.7323V17.6806C119.664 17.7172 119.458 17.7366 119.251 17.7387C117.991 17.7387 117.489 17.2933 117.489 16.1813V12.9238H116.578V11.9649H117.489V10.5028L118.624 10.5026ZM121.415 9.6869H122.539V12.8656H122.628C122.779 12.5334 123.028 12.256 123.341 12.0711C123.654 11.8861 124.017 11.8028 124.379 11.8323C124.657 11.8171 124.935 11.8637 125.193 11.9688C125.45 12.0739 125.682 12.2349 125.871 12.4403C126.06 12.6457 126.201 12.8904 126.285 13.1571C126.369 13.4237 126.393 13.7056 126.356 13.9828V17.7068H125.222V14.2636C125.222 13.3422 124.795 12.8756 123.994 12.8756C123.799 12.8596 123.604 12.8865 123.42 12.9545C123.237 13.0224 123.071 13.1298 122.933 13.2691C122.795 13.4084 122.689 13.5762 122.623 13.7609C122.557 13.9455 122.531 14.1425 122.549 14.338V17.7068H121.415V9.6869ZM132.963 16.1493C132.809 16.6765 132.476 17.1325 132.021 17.4376C131.566 17.7427 131.019 17.8774 130.475 17.8182C130.097 17.8282 129.721 17.7554 129.374 17.6049C129.026 17.4543 128.716 17.2296 128.463 16.9463C128.211 16.6631 128.023 16.328 127.912 15.9645C127.802 15.6009 127.771 15.2175 127.823 14.8409C127.773 14.4632 127.804 14.0789 127.914 13.7143C128.024 13.3496 128.211 13.013 128.462 12.7272C128.713 12.4414 129.022 12.2132 129.369 12.0579C129.715 11.9027 130.091 11.824 130.47 11.8273C132.068 11.8273 133.032 12.9238 133.032 14.7351V15.1323H128.977V15.1961C128.96 15.4078 128.986 15.6209 129.055 15.8217C129.124 16.0224 129.234 16.2065 129.378 16.3621C129.522 16.5177 129.697 16.6413 129.891 16.7251C130.085 16.8089 130.295 16.8509 130.506 16.8486C130.777 16.8813 131.052 16.8323 131.295 16.7077C131.539 16.5832 131.739 16.3888 131.872 16.1493H132.963ZM128.977 14.2905H131.877C131.892 14.0969 131.865 13.9024 131.8 13.7196C131.735 13.5368 131.633 13.3697 131.5 13.2289C131.367 13.0882 131.206 12.977 131.028 12.9025C130.849 12.828 130.657 12.7918 130.464 12.7962C130.268 12.7937 130.074 12.8307 129.892 12.9049C129.711 12.9791 129.546 13.0891 129.407 13.2284C129.269 13.3677 129.159 13.5334 129.085 13.7158C129.011 13.8982 128.975 14.0936 128.977 14.2905V14.2905Z" fill="white"/>
</svg>
