<svg width="25" height="26" viewBox="0 0 25 26" fill="none" xmlns="http://www.w3.org/2000/svg">
<path d="M24.7188 13.1082C24.7188 19.7961 19.2972 25.2176 12.6094 25.2176C5.92153 25.2176 0.5 19.7961 0.5 13.1082C0.5 6.42037 5.92153 0.99884 12.6094 0.99884C19.2972 0.99884 24.7188 6.42037 24.7188 13.1082ZM11.2087 19.52L20.1931 10.5357C20.4981 10.2306 20.4981 9.7359 20.1931 9.43082L19.0882 8.32599C18.7832 8.02086 18.2885 8.02086 17.9833 8.32599L10.6562 15.653L7.2354 12.2322C6.93032 11.9271 6.43564 11.9271 6.13052 12.2322L5.02568 13.337C4.72061 13.6421 4.72061 14.1368 5.02568 14.4419L10.1038 19.52C10.4089 19.8251 10.9036 19.8251 11.2087 19.52Z" fill="#D1003F"/>
</svg>
