<svg width="100" height="100" viewBox="0 0 100 100" fill="none" xmlns="http://www.w3.org/2000/svg">
<g clip-path="url(#clip0_53_161)">
<path d="M62.2782 5.25736C61.2333 5.25736 60.1942 5.28671 59.1639 5.33661C58.8748 4.44197 58.3705 3.63196 57.6953 2.97768C57.0201 2.3234 56.1946 1.84485 55.2913 1.58403C54.388 1.32321 53.4345 1.2881 52.5145 1.48178C51.5945 1.67545 50.736 2.09199 50.0145 2.69484C49.5429 1.94054 48.9023 1.30629 48.1433 0.842226C47.3844 0.37816 46.5278 0.0970037 45.6415 0.0209819C44.7551 -0.0550399 43.8632 0.0761567 43.0363 0.404202C42.2094 0.732247 41.4701 1.24815 40.877 1.91112C40.1874 1.14156 39.3029 0.572264 38.3169 0.263228C37.3308 -0.0458079 36.2797 -0.0831423 35.2742 0.155157C34.2687 0.393456 33.3461 0.898564 32.6037 1.61726C31.8612 2.33595 31.3263 3.24161 31.0555 4.23881C30.1847 3.70488 29.1874 3.41278 28.1661 3.39259C27.1449 3.37241 26.1368 3.62488 25.2457 4.12399C24.3545 4.6231 23.6125 5.35079 23.0962 6.23209C22.5799 7.11339 22.3079 8.11642 22.3083 9.13782V19.8106C15.3241 25.6446 9.7062 32.9412 5.85146 41.1847C1.99673 49.4283 -0.000793165 58.4177 2.36257e-07 67.518C2.36257e-07 67.9072 0.154627 68.2805 0.429865 68.5558C0.705102 68.831 1.0784 68.9856 1.46765 68.9856C1.85689 68.9856 2.2302 68.831 2.50543 68.5558C2.78067 68.2805 2.9353 67.9072 2.9353 67.518C2.93222 59.2739 4.65185 51.1201 7.98395 43.5794C11.3161 36.0387 16.1871 29.2775 22.2848 23.7292V25.9336C21.8548 30.1264 21.7469 34.3461 21.9619 38.5554C15.8623 46.9896 12.5841 57.1357 12.5954 67.5444C12.5954 67.9336 12.75 68.3069 13.0252 68.5822C13.3005 68.8574 13.6738 69.012 14.063 69.012C14.4523 69.012 14.8256 68.8574 15.1008 68.5822C15.376 68.3069 15.5307 67.9336 15.5307 67.5444C15.5273 58.9688 17.9007 50.5601 22.3875 43.2519C23.3973 51.7378 25.6163 56.8863 26.2504 58.2219V98.5265C26.2504 98.9157 26.405 99.289 26.6802 99.5643C26.9555 99.8395 27.3288 99.9941 27.718 99.9941C28.1073 99.9941 28.4806 99.8395 28.7558 99.5643C29.031 99.289 29.1857 98.9157 29.1857 98.5265V59.3608H55.6474L59.4633 98.6674C59.497 99.0328 59.6664 99.3722 59.9381 99.6189C60.2098 99.8656 60.564 100.002 60.9309 100H61.0748C61.2676 99.982 61.4549 99.926 61.626 99.8353C61.7971 99.7445 61.9485 99.6209 62.0716 99.4713C62.1946 99.3218 62.2869 99.1494 62.343 98.9641C62.3991 98.7787 62.418 98.5841 62.3986 98.3914L58.5357 58.4714C64.1451 53.047 66.2497 45.6148 66.6812 43.8771L75.1466 33.6593C75.2014 33.598 75.2496 33.5311 75.2904 33.4597L75.3139 33.4215L75.3521 33.3452L75.3755 33.2953C75.3755 33.2718 75.3961 33.2454 75.4049 33.219L75.4225 33.1691C75.4225 33.1398 75.4401 33.1133 75.446 33.0869V33.037C75.446 33.0077 75.446 32.9783 75.4607 32.949V32.9049V32.8081C75.4607 32.8081 75.4607 32.7846 75.4607 32.7728V32.6525L75.0967 22.6196C94.6252 28.2173 108.958 46.2283 108.958 67.5297C108.958 67.919 109.113 68.2923 109.388 68.5675C109.663 68.8427 110.037 68.9974 110.426 68.9974C110.815 68.9974 111.188 68.8427 111.464 68.5675C111.739 68.2923 111.894 67.919 111.894 67.5297C111.894 44.1236 95.6144 24.4483 73.7846 19.2294L68.3543 11.4743C68.1505 11.1809 67.8466 10.9719 67.4997 10.8865C67.1527 10.8011 66.7866 10.8452 66.4698 11.0105C64.691 11.9293 62.7919 13.8578 62.971 17.8791C62.7244 17.8791 62.4808 17.8791 62.2342 17.8791C61.2832 17.8791 60.338 17.9075 59.3987 17.9643V8.27778C60.338 8.23081 61.2832 8.2044 62.2342 8.2044C94.9422 8.2044 121.554 34.8158 121.554 67.5238C121.554 67.9131 121.708 68.2864 121.984 68.5616C122.259 68.8369 122.632 68.9915 123.021 68.9915C123.411 68.9915 123.784 68.8369 124.059 68.5616C124.334 68.2864 124.489 67.9131 124.489 67.5238C124.545 33.1897 96.6212 5.25736 62.2782 5.25736ZM56.4957 24.5188H50.8951V12.4635H56.4957V24.5188ZM42.3505 24.5188V12.4635H47.9481V24.5188H42.3505ZM33.8029 24.5188V12.4635H39.4005V24.5188H33.8029ZM25.2582 24.5188V12.4635H30.8529V24.5188H25.2582ZM53.6954 4.30926C54.4376 4.31081 55.149 4.60633 55.6738 5.13115C56.1986 5.65597 56.4941 6.36733 56.4957 7.10953V9.51354H50.8951V7.10953C50.8959 6.36709 51.1912 5.65528 51.7162 5.1303C52.2412 4.60531 52.953 4.31003 53.6954 4.30926ZM45.1508 2.95315C45.8925 2.95547 46.6031 3.25134 47.1272 3.77608C47.6514 4.30081 47.9465 5.01173 47.9481 5.75342V9.51354H42.3505V5.75342C42.352 5.01122 42.6476 4.29986 43.1724 3.77504C43.6972 3.25023 44.4086 2.9547 45.1508 2.95315ZM33.8058 5.75342C33.7937 5.37825 33.8571 5.00447 33.9923 4.65429C34.1274 4.30411 34.3317 3.98468 34.5927 3.71499C34.8538 3.44531 35.1665 3.23087 35.5121 3.08442C35.8577 2.93797 36.2293 2.8625 36.6046 2.8625C36.98 2.8625 37.3515 2.93797 37.6972 3.08442C38.0428 3.23087 38.3554 3.44531 38.6165 3.71499C38.8776 3.98468 39.0818 4.30411 39.217 4.65429C39.3522 5.00447 39.4156 5.37825 39.4034 5.75342V9.51354H33.8058V5.75342ZM28.0585 6.34048C28.4259 6.34048 28.7896 6.41284 29.129 6.55342C29.4684 6.694 29.7768 6.90005 30.0365 7.15981C30.2963 7.41956 30.5023 7.72794 30.6429 8.06733C30.7835 8.40672 30.8559 8.77047 30.8559 9.13782V9.50767H25.2582V9.14369C25.2582 8.40179 25.553 7.69028 26.0776 7.16567C26.6022 6.64107 27.3137 6.34635 28.0556 6.34635L28.0585 6.34048ZM56.4076 56.4137H28.672C27.4715 53.5929 23.77 43.3898 25.1262 27.4658H57.3146L60.1648 32.1623L63.7899 43.2519C63.3613 44.9015 61.3683 51.6615 56.4076 56.4137ZM66.6812 27.3073L72.0205 32.7817L65.8564 40.208L63.15 32.0155L66.6812 27.3073ZM66.8456 14.4155L72.1291 21.9768L72.3815 28.9364L67.776 24.1724C67.2477 23.0717 64.6 17.1072 66.8661 14.4155H66.8456ZM62.2782 20.8115C62.6716 20.8115 63.062 20.8115 63.4523 20.8291C63.795 22.2151 64.2606 23.5678 64.8437 24.871L61.6912 29.0714L59.431 25.2908V20.9025C60.382 20.8438 61.3272 20.8115 62.2782 20.8115Z" fill="#D1003F"/>
<path d="M29.4375 48.9492H33.6992C33.9595 48.9492 34.2091 48.8458 34.3932 48.6618C34.5773 48.4777 34.6807 48.2281 34.6807 47.9678C34.6807 47.7075 34.5773 47.4578 34.3932 47.2738C34.2091 47.0897 33.9595 46.9863 33.6992 46.9863H29.4375C29.1772 46.9863 28.9276 47.0897 28.7435 47.2738C28.5595 47.4578 28.4561 47.7075 28.4561 47.9678C28.4561 48.2281 28.5595 48.4777 28.7435 48.6618C28.9276 48.8458 29.1772 48.9492 29.4375 48.9492Z" fill="#D1003F"/>
<path d="M35.7578 50.625H29.4375C29.1785 50.625 28.9301 50.7279 28.747 50.911C28.5638 51.0942 28.4609 51.3426 28.4609 51.6016C28.4609 51.8606 28.5638 52.109 28.747 52.2921C28.9301 52.4752 29.1785 52.5781 29.4375 52.5781H35.7578C36.0168 52.5781 36.2652 52.4752 36.4483 52.2921C36.6315 52.109 36.7344 51.8606 36.7344 51.6016C36.7344 51.3426 36.6315 51.0942 36.4483 50.911C36.2652 50.7279 36.0168 50.625 35.7578 50.625Z" fill="#D1003F"/>
</g>
<defs>
<clipPath id="clip0_53_161">
<rect width="100" height="100" fill="white"/>
</clipPath>
</defs>
</svg>
