<svg width="305" height="396" viewBox="0 0 305 396" fill="none" xmlns="http://www.w3.org/2000/svg">
<g clip-path="url(#clip0_55_479)">
<path d="M164.56 131.58C149.573 131.582 134.922 136.028 122.462 144.356C110.001 152.684 100.29 164.52 94.5556 178.367C88.8215 192.214 87.3223 207.451 90.2474 222.15C93.1725 236.849 100.391 250.351 110.989 260.948C121.587 271.545 135.09 278.761 149.79 281.685C164.489 284.608 179.726 283.107 193.572 277.371C207.419 271.635 219.253 261.922 227.58 249.46C235.906 236.998 240.35 222.347 240.35 207.36C240.326 187.267 232.333 168.005 218.125 153.798C203.916 139.592 184.653 131.601 164.56 131.58ZM164.56 266.14C152.935 266.138 141.571 262.689 131.906 256.229C122.241 249.769 114.709 240.588 110.262 229.847C105.814 219.106 104.652 207.288 106.921 195.886C109.19 184.485 114.789 174.012 123.01 165.793C131.231 157.573 141.704 151.976 153.106 149.709C164.508 147.441 176.326 148.606 187.067 153.055C197.807 157.505 206.986 165.039 213.445 174.705C219.903 184.371 223.35 195.735 223.35 207.36C223.332 222.945 217.131 237.887 206.11 248.907C195.088 259.926 180.146 266.124 164.56 266.14Z" fill="black" fill-opacity="0.03"/>
<path d="M382 156.34C382 70.14 311.85 0 225.65 0C200.772 0.0136595 176.255 5.95711 154.132 17.3376C132.009 28.7182 112.918 45.208 98.44 65.44C69.0658 78.9436 44.1797 100.587 26.7321 127.804C9.28445 155.021 0.00713357 186.671 0 219C0 312.12 75.75 387.87 168.87 387.87C182.873 387.875 196.822 386.145 210.4 382.72C230.248 393.312 252.939 397.35 275.222 394.254C297.505 391.158 318.236 381.088 334.445 365.487C350.654 349.885 361.507 329.554 365.451 307.405C369.395 285.256 366.227 262.427 356.4 242.19C373.184 216.711 382.088 186.85 382 156.34ZM260.51 378.2C244.809 378.193 229.385 374.055 215.79 366.2C214.496 365.45 213.026 365.056 211.53 365.06C210.77 365.061 210.014 365.161 209.28 365.36C196.115 368.976 182.523 370.805 168.87 370.8C85.13 370.82 17 302.7 17 219C16.9997 189.556 25.5511 160.746 41.6152 136.07C57.6793 111.394 80.5646 91.9151 107.49 80C108.905 79.3605 110.118 78.3475 111 77.07C123.837 58.5411 140.972 43.398 160.938 32.9367C180.905 22.4753 203.109 17.0071 225.65 17C302.48 17 365 79.51 365 156.34C365.064 185.097 356.168 213.16 339.55 236.63C338.632 237.933 338.099 239.467 338.011 241.058C337.922 242.65 338.282 244.234 339.05 245.63C346.52 259.267 350.31 274.614 350.048 290.16C349.785 305.707 345.48 320.917 337.555 334.294C329.629 347.671 318.357 358.755 304.848 366.453C291.339 374.152 276.059 378.2 260.51 378.2Z" fill="black" fill-opacity="0.03"/>
<path d="M158.32 248.65C150.44 247.448 143.067 244.018 137.072 238.765C131.076 233.512 126.707 226.654 124.48 219C124.221 218.108 123.619 217.354 122.805 216.906C121.991 216.458 121.032 216.351 120.14 216.61C119.248 216.869 118.494 217.471 118.046 218.285C117.598 219.099 117.491 220.058 117.75 220.95C120.36 229.883 125.466 237.885 132.469 244.015C139.472 250.144 148.08 254.146 157.28 255.55C157.457 255.56 157.633 255.56 157.81 255.55C158.738 255.618 159.655 255.314 160.36 254.705C161.064 254.097 161.497 253.233 161.565 252.305C161.633 251.377 161.329 250.46 160.72 249.755C160.112 249.051 159.248 248.618 158.32 248.55V248.65Z" fill="black" fill-opacity="0.03"/>
</g>
<defs>
<clipPath id="clip0_55_479">
<rect width="381.99" height="395.2" fill="white"/>
</clipPath>
</defs>
</svg>
