<svg width="154" height="49" viewBox="0 0 154 49" fill="none" xmlns="http://www.w3.org/2000/svg">
<path d="M147.833 49H6.16667C3.05004 49 0.5 46.2438 0.5 42.875V6.12503C0.5 2.75625 3.04999 0 6.16667 0H147.833C150.95 0 153.5 2.75625 153.5 6.12503V42.875C153.5 46.2438 150.95 49 147.833 49Z" fill="black"/>
<path d="M54.0927 11.0936C54.0927 12.042 53.8123 12.7973 53.2507 13.3607C52.6127 14.0306 51.7814 14.3659 50.7593 14.3659C49.7806 14.3659 48.9484 14.0263 48.264 13.3461C47.5785 12.6664 47.2363 11.8236 47.2363 10.8181C47.2363 9.81202 47.5785 8.96971 48.264 8.28949C48.9484 7.60988 49.7806 7.26978 50.7593 7.26978C51.245 7.26978 51.7099 7.36491 52.1514 7.55463C52.5929 7.74481 52.947 7.99726 53.2119 8.3134L52.6158 8.91079C52.1669 8.37354 51.5488 8.10512 50.7593 8.10512C50.0455 8.10512 49.4283 8.35634 48.9074 8.8591C48.3863 9.36237 48.1259 10.015 48.1259 10.8181C48.1259 11.6211 48.3863 12.2737 48.9074 12.777C49.4283 13.2798 50.0455 13.531 50.7593 13.531C51.5166 13.531 52.1479 13.2784 52.6533 12.7726C52.9814 12.4431 53.1712 11.9851 53.2219 11.3969H50.7593V10.581H54.0454C54.0771 10.7584 54.0926 10.9287 54.0926 11.0936" fill="white"/>
<path d="M54.0927 11.0936H53.9797C53.9788 12.0204 53.7085 12.7402 53.1707 13.2807L53.1696 13.2816L53.1691 13.2825C52.5514 13.9293 51.7575 14.2513 50.7593 14.2526C49.8067 14.2513 49.0093 13.9258 48.3435 13.2661C47.6791 12.605 47.3506 11.7979 47.3494 10.818C47.3506 9.83769 47.6791 9.0311 48.3435 8.37047C49.0093 7.71024 49.8067 7.38433 50.7593 7.38296C51.2304 7.38296 51.679 7.47504 52.1068 7.6585C52.535 7.84339 52.8733 8.08566 53.1253 8.38644L53.2118 8.31338L53.132 8.23336L52.5359 8.83115L52.6158 8.91078L52.7028 8.83833C52.233 8.27446 51.5735 7.99022 50.7593 7.9919C50.019 7.99098 49.3678 8.25595 48.8291 8.77778C48.2853 9.3013 48.012 9.99068 48.0129 10.818C48.012 11.6454 48.2853 12.3348 48.8291 12.8583C49.3678 13.3802 50.019 13.6451 50.7593 13.6442C51.5416 13.6455 52.2084 13.3797 52.7332 12.8526C53.0838 12.5006 53.2825 12.0129 53.3346 11.4066L53.3451 11.2837H50.8723V10.6942H54.0454V10.581L53.9341 10.6009C53.965 10.7725 53.9796 10.9357 53.9796 11.0936H54.2057C54.2057 10.9215 54.1897 10.7447 54.1566 10.5607L54.1399 10.4678H50.6464V11.5101H53.222V11.3969L53.1094 11.3871C53.0596 11.9567 52.8785 12.3857 52.5735 12.6926C52.0878 13.1772 51.4918 13.4164 50.7593 13.4178C50.072 13.4168 49.4888 13.1798 48.9859 12.6956C48.488 12.2132 48.2403 11.5972 48.239 10.818C48.2403 10.0389 48.488 9.4229 48.9859 8.94044C49.4888 8.45625 50.072 8.21921 50.7593 8.2183C51.5236 8.22013 52.1007 8.47303 52.5294 8.98378L52.6089 9.07841L53.2918 8.39346L53.3651 8.3201L53.2984 8.24084C53.0207 7.90927 52.6507 7.64609 52.196 7.45072C51.7404 7.25475 51.2596 7.15656 50.7593 7.15656C49.7546 7.15569 48.8875 7.50944 48.1842 8.2095C47.4783 8.90818 47.1224 9.78641 47.1234 10.818C47.1224 11.8492 47.4783 12.7279 48.1846 13.427C48.8875 14.1266 49.7546 14.48 50.7593 14.479C51.8057 14.48 52.6737 14.1319 53.3324 13.4389L53.2507 13.3607L53.3306 13.4408C53.916 12.8548 54.2065 12.0633 54.2057 11.0936H54.0927M59.3022 8.25635H56.214V10.41H58.9989V11.2261H56.214V13.3797H59.3022V14.2141H55.3434V7.42193H59.3022V8.25635" fill="white"/>
<path d="M59.3021 8.25634V8.14314H56.1009V10.5231H58.8859V11.1126L56.1009 11.1129V13.4929H59.1891V14.1009H55.4564V7.53512H59.1891V8.25634H59.3021V8.14314V8.25634H59.4151V7.30872H55.2303V14.3273H59.4151V13.2665H56.3269V11.3393H59.1119V10.2967H56.3269V8.36954H59.4151V8.25634H59.3021M62.9766 14.2142H62.1047V8.25629H60.2107V7.42186H64.8707V8.25629H62.9766V14.2141" fill="white"/>
<path d="M62.9767 14.2142V14.1009H62.2178V8.14314H60.3238V7.53517H64.7577V8.14314H62.8637V14.2141H62.9767V14.1009V14.2141H63.0898V8.36954H64.9837V7.30872H60.0978V8.36949H61.9918V14.3273H63.0898V14.2141H62.9767M68.2424 14.2142V7.42186H69.1134V14.2141H68.2424" fill="white"/>
<path d="M68.2424 14.2142H68.3554V7.53512H69.0004V14.1009H68.2424V14.2141H68.3554H68.2424V14.3273H69.2264V7.30872H68.1294V14.3273H68.2424V14.2141M72.9786 14.2142H72.1067V8.25629H70.2128V7.42186H74.8727V8.25629H72.9786V14.2141" fill="white"/>
<path d="M72.9786 14.2142V14.101H72.2196V8.14317H70.3258V7.5352H74.7596V8.14317H72.8656V14.2142H72.9786V14.101V14.2142H73.0916V8.36957H74.9856V7.30875H70.0997V8.36952H71.9936V14.3273H73.0916V14.2141H72.9786M79.3652 12.7678C79.8671 13.2767 80.4813 13.5309 81.2075 13.5309C81.9338 13.5309 82.5483 13.2767 83.0494 12.7678C83.5518 12.2588 83.8035 11.6082 83.8035 10.8181C83.8035 10.0279 83.5518 9.37733 83.0494 8.86836C82.5483 8.3594 81.9338 8.10512 81.2075 8.10512C80.4813 8.10512 79.8671 8.3594 79.3652 8.86836C78.8641 9.37733 78.6125 10.0279 78.6125 10.8181C78.6125 11.6082 78.8641 12.2588 79.3652 12.7678ZM83.694 13.3364C83.0273 14.0231 82.1982 14.3659 81.2075 14.3659C80.2159 14.3659 79.3872 14.0231 78.722 13.3364C78.0548 12.6505 77.7228 11.8109 77.7228 10.8181C77.7228 9.82525 78.0548 8.98548 78.722 8.29972C79.3872 7.61289 80.2159 7.26978 81.2075 7.26978C82.193 7.26978 83.0198 7.61472 83.6896 8.30414C84.3584 8.99352 84.6931 9.83145 84.6931 10.8181C84.6931 11.8109 84.3592 12.6505 83.694 13.3364Z" fill="white"/>
<path d="M79.3652 12.7678L79.2848 12.8473C79.8054 13.3767 80.4548 13.6455 81.2075 13.6442C81.9598 13.6455 82.6101 13.3767 83.1298 12.8473C83.6538 12.3175 83.9173 11.6321 83.9165 10.818C83.9173 10.004 83.6538 9.31855 83.1298 8.78872C82.6101 8.25941 81.9598 7.99058 81.2075 7.9919C80.4548 7.99058 79.8054 8.25941 79.2848 8.78872C78.7621 9.31855 78.4981 10.004 78.4994 10.818C78.4981 11.6321 78.7621 12.3175 79.2848 12.8473L79.3652 12.7678L79.4456 12.6882C78.9661 12.1995 78.7264 11.5848 78.7255 10.818C78.7264 10.0513 78.9661 9.43664 79.4455 8.94792C79.9294 8.45935 80.5073 8.21967 81.2075 8.21835C81.9072 8.21967 82.4865 8.45935 82.9691 8.94792C83.4494 9.43664 83.6891 10.0513 83.69 10.818C83.6891 11.5847 83.4494 12.1995 82.9691 12.6882C82.4865 13.1768 81.9073 13.4164 81.2075 13.4177C80.5073 13.4164 79.9294 13.1768 79.4455 12.6882L79.3652 12.7678ZM83.694 13.3364L83.6132 13.2577C82.9651 13.9228 82.1726 14.2513 81.2075 14.2527C80.242 14.2513 79.4495 13.9228 78.8027 13.2577L78.7996 13.2542L78.8027 13.2577C78.156 12.5904 77.8368 11.7856 77.8359 10.818C77.8368 9.85047 78.156 9.0457 78.8027 8.37841C79.4495 7.7133 80.242 7.38433 81.2075 7.38301C82.1664 7.38433 82.9571 7.71467 83.6088 8.38324C84.2577 9.05364 84.5787 9.85713 84.5801 10.818C84.5787 11.7856 84.2587 12.5904 83.6132 13.2577L83.694 13.3364L83.7753 13.415C84.4604 12.7102 84.8069 11.836 84.8061 10.818C84.8069 9.8059 84.4591 8.93342 83.7707 8.22547C83.0821 7.51473 82.2194 7.15534 81.2075 7.15656C80.1904 7.15534 79.3251 7.51305 78.6407 8.22105V8.22054C77.9542 8.92584 77.6089 9.8001 77.6099 10.818C77.6089 11.836 77.9542 12.7102 78.6407 13.4155L78.6438 13.4187L78.6407 13.415C79.3251 14.123 80.1904 14.48 81.2075 14.4791C82.2243 14.48 83.0896 14.123 83.7753 13.415L83.694 13.3364V13.3364ZM85.916 14.2142V7.42188H86.9765L90.2721 12.7058H90.3097L90.2721 11.3968V7.42188H91.1441V14.2141H90.2346L86.7866 8.67415H86.7491L86.7866 9.98356V14.2141H85.916" fill="white"/>
<path d="M85.9159 14.2142H86.029V7.53512H86.9137L90.2094 12.819H90.4257L90.3851 11.3952V7.53517H91.031V14.1009H90.2973L86.8493 8.56099H86.633L86.6735 9.98543V14.1009H85.916V14.2141H86.029H85.916V14.3273H86.8996V9.98181L86.8621 8.67114L86.749 8.67419V8.78739H86.7866V8.67419L86.6907 8.73438L90.1719 14.3273H91.2571V7.30872H90.1591V11.3982L90.1966 12.7088L90.3096 12.7058V12.5926H90.2721V12.7058L90.368 12.6457L87.039 7.30872H85.803V14.3273H85.916V14.2141M121.36 33.4587H123.469V19.307H121.36L121.36 33.4587ZM140.355 24.4048L137.938 30.5403H137.866L135.356 24.4047H133.085L136.847 32.9803L134.702 37.7503H136.903L142.701 24.4047L140.355 24.4048ZM128.395 31.8514C127.704 31.8514 126.741 31.5055 126.741 30.6495C126.741 29.5572 127.941 29.1385 128.976 29.1385C129.904 29.1385 130.339 29.3387 130.903 29.6121C130.74 30.9228 129.613 31.8514 128.395 31.8514V31.8514ZM128.65 24.0951C127.123 24.0951 125.542 24.769 124.887 26.262L126.759 27.0447C127.159 26.262 127.904 26.0068 128.686 26.0068C129.777 26.0068 130.885 26.6626 130.903 27.8278V27.9733C130.521 27.7548 129.704 27.4271 128.704 27.4271C126.687 27.4271 124.632 28.5375 124.632 30.6132C124.632 32.5067 126.287 33.7267 128.14 33.7267C129.559 33.7267 130.339 33.0895 130.831 32.3431H130.903V33.4353H132.939V28.0095C132.939 25.4974 131.067 24.0951 128.65 24.0951V24.0951ZM115.616 26.1275H112.617V21.2766H115.616C117.193 21.2766 118.088 22.5841 118.088 23.702C118.088 24.7987 117.193 26.1275 115.616 26.1275ZM115.562 19.307H110.509V33.4587H112.617V28.0971H115.562C117.899 28.0971 120.197 26.4021 120.197 23.702C120.197 21.002 117.899 19.307 115.562 19.307V19.307ZM88.0064 31.854C86.5494 31.854 85.3296 30.6322 85.3296 28.954C85.3296 27.2583 86.5494 26.0179 88.0064 26.0179C89.4448 26.0179 90.5736 27.2582 90.5736 28.954C90.5736 30.6322 89.4448 31.854 88.0064 31.854H88.0064ZM90.4279 25.1972H90.3551C89.8818 24.6319 88.971 24.1213 87.8241 24.1213C85.4206 24.1213 83.2176 26.2367 83.2176 28.954C83.2176 31.6533 85.4205 33.7506 87.8241 33.7506C88.971 33.7506 89.8818 33.2398 90.3551 32.6566H90.4279V33.3495C90.4279 35.1918 89.4448 36.1766 87.8607 36.1766C86.5679 36.1766 85.7667 35.2461 85.4386 34.4621L83.6 35.228C84.128 36.5046 85.5301 38.0732 87.8607 38.0732C90.337 38.0732 92.4309 36.6138 92.4309 33.0577V24.4131H90.4279V25.1972ZM93.8874 33.4587H95.9996V19.3064H93.8874V33.4587ZM99.1133 28.79C99.0586 26.9296 100.552 25.9815 101.626 25.9815C102.464 25.9815 103.174 26.4008 103.41 27.0031L99.1133 28.79ZM105.668 27.1852C105.268 26.1089 104.047 24.1213 101.553 24.1213C99.0767 24.1213 97.0193 26.0727 97.0193 28.9359C97.0193 31.6352 99.0586 33.7506 101.79 33.7506C103.993 33.7506 105.268 32.401 105.796 31.6169L104.157 30.5225C103.611 31.3251 102.864 31.854 101.79 31.854C100.715 31.854 99.9509 31.3614 99.459 30.3951L105.886 27.7322L105.668 27.1852ZM54.4604 25.5986V27.6411H59.3401C59.1944 28.79 58.812 29.6289 58.2293 30.2125C57.5194 30.924 56.4087 31.7081 54.4604 31.7081C51.456 31.7081 49.1073 29.2826 49.1073 26.2734C49.1073 23.2642 51.456 20.8384 54.4604 20.8384C56.081 20.8384 57.2642 21.4768 58.1383 22.2975L59.5768 20.8569C58.357 19.6894 56.7362 18.7959 54.4604 18.7959C50.3452 18.7959 46.8857 22.1517 46.8857 26.2734C46.8857 30.3951 50.3452 33.7506 54.4604 33.7506C56.682 33.7506 58.357 33.0215 59.6677 31.6533C61.0152 30.3036 61.4342 28.4071 61.4342 26.8753C61.4342 26.4008 61.3979 25.9634 61.3246 25.5986H54.4604ZM66.9819 31.854C65.5249 31.854 64.2685 30.6503 64.2685 28.9359C64.2685 27.2033 65.5249 26.0179 66.9819 26.0179C68.4383 26.0179 69.6947 27.2033 69.6947 28.9359C69.6947 30.6503 68.4383 31.854 66.9819 31.854ZM66.9819 24.1213C64.3232 24.1213 62.1564 26.1456 62.1564 28.9359C62.1564 31.7081 64.3232 33.7506 66.9819 33.7506C69.64 33.7506 71.8069 31.7081 71.8069 28.9359C71.8069 26.1456 69.64 24.1213 66.9819 24.1213ZM77.5077 31.854C76.0514 31.854 74.7948 30.6503 74.7948 28.9359C74.7948 27.2033 76.0514 26.0179 77.5078 26.0179C78.9643 26.0179 80.2207 27.2033 80.2207 28.9359C80.2207 30.6503 78.9643 31.854 77.5078 31.854H77.5077ZM77.5077 24.1213C74.8492 24.1213 72.6828 26.1456 72.6828 28.9359C72.6828 31.7081 74.8492 33.7506 77.5078 33.7506C80.166 33.7506 82.3329 31.7081 82.3329 28.9359C82.3329 26.1456 80.166 24.1213 77.5078 24.1213H77.5077Z" fill="white"/>
<path d="M12.3769 8.11394C11.9976 8.45669 11.7712 9.02839 11.7712 9.78727V9.61571V34.6576V34.4927C11.7712 35.1935 11.9654 35.7347 12.2943 36.0833L12.3782 36.1637V36.1641C12.6444 36.4047 12.9858 36.5324 13.377 36.532C13.7592 36.532 14.1892 36.41 14.6431 36.1522L31.0483 26.816L36.6834 23.6087C37.3991 23.2015 37.8008 22.6762 37.868 22.141V22.1388C37.8008 21.6025 37.3991 21.0776 36.6834 20.6703L31.0479 17.4634L14.6432 8.12717C14.1883 7.86897 13.758 7.74646 13.3747 7.74646C12.984 7.74646 12.6431 7.8738 12.377 8.11394H12.3769Z" fill="#00C1FF"/>
<path d="M12.3783 36.1638L12.2943 36.0833C11.9654 35.7348 11.7712 35.1935 11.7712 34.4927V34.6576V9.62193V9.78728C11.7712 9.0284 11.9976 8.45671 12.3769 8.11395L26.38 22.1393L12.3783 36.1638Z" fill="url(#paint0_linear_15_4)"/>
<path d="M31.0483 26.816L26.38 22.1393L31.0479 17.4634L36.6834 20.6703C37.3991 21.0776 37.8008 21.6025 37.868 22.1389V22.141C37.8008 22.6761 37.3991 23.2015 36.6834 23.6087L31.0484 26.8159" fill="url(#paint1_linear_15_4)"/>
<path d="M13.3769 36.532C12.9858 36.5324 12.6444 36.4046 12.3783 36.1641V36.1637L26.38 22.1393L31.0483 26.8159L14.6431 36.1522C14.1892 36.41 13.7591 36.532 13.3769 36.532Z" fill="url(#paint2_linear_15_4)"/>
<path d="M26.38 22.1393L12.3768 8.11398C12.643 7.87385 12.9839 7.7465 13.3746 7.7465C13.7578 7.7465 14.1882 7.86896 14.643 8.12721L31.0478 17.4634L26.3799 22.1393" fill="url(#paint3_linear_15_4)"/>
<path d="M13.3774 36.6979C12.9863 36.6979 12.6445 36.5701 12.3783 36.3295L12.3779 36.3299C12.3768 36.3288 12.3756 36.3278 12.3744 36.3269L12.3016 36.2557C12.2993 36.2534 12.2971 36.2508 12.2944 36.2482L12.3784 36.1641C12.6446 36.4047 12.9858 36.5325 13.3771 36.532C13.7593 36.532 14.1893 36.41 14.6432 36.1522L31.0484 26.816L31.1535 26.9213L31.0471 26.9819L14.6431 36.3176C14.2295 36.5524 13.8361 36.6749 13.4807 36.6953C13.4463 36.697 13.4119 36.6978 13.3774 36.6978" fill="url(#paint4_linear_15_4)"/>
<path d="M12.2943 36.2482C11.9654 35.8997 11.7712 35.3589 11.7712 34.6576V34.4927C11.7712 35.1935 11.9654 35.7347 12.2943 36.0833L12.3782 36.1638L12.2943 36.2482" fill="url(#paint5_linear_15_4)"/>
<path d="M31.1535 26.9212L31.0483 26.8159L36.6834 23.6086C37.3991 23.2015 37.8009 22.6761 37.868 22.141C37.868 22.3373 37.8243 22.5337 37.7374 22.7248C37.562 23.1099 37.2107 23.4738 36.6835 23.774L31.1535 26.9213" fill="url(#paint6_linear_15_4)"/>
<path d="M37.868 22.1389C37.8008 21.6025 37.3991 21.0776 36.6834 20.6703L31.0479 17.4635L31.153 17.3582H31.1534L36.6834 20.5054C37.4724 20.9547 37.8675 21.5467 37.868 22.1389" fill="url(#paint7_linear_15_4)"/>
<path d="M11.7712 9.78729V9.61431C11.7712 9.55194 11.7729 9.49094 11.7761 9.43172V9.42902C11.7761 9.42821 11.7761 9.42734 11.7764 9.42643V9.41976C11.8105 8.81611 11.9976 8.34525 12.2943 8.03083L12.3769 8.11392C11.9976 8.45672 11.7712 9.02842 11.7712 9.78729Z" fill="url(#paint8_linear_15_4)"/>
<path d="M31.0478 17.4634L14.6431 8.12711C14.1883 7.86891 13.7579 7.74645 13.3747 7.74645C12.9839 7.74645 12.6431 7.87379 12.3769 8.11393L12.2943 8.0308C12.3201 8.00344 12.3469 7.97705 12.3747 7.95168C12.3756 7.95077 12.3769 7.94985 12.3778 7.94899C12.6418 7.71068 12.9791 7.58334 13.3663 7.58105H13.3747C13.7579 7.58105 14.1883 7.70356 14.6431 7.96186L31.1534 17.3578L31.1529 17.3581L31.0478 17.4634" fill="url(#paint9_linear_15_4)"/>
<defs>
<linearGradient id="paint0_linear_15_4" x1="20.7201" y1="9.35733" x2="8.65254" y2="21.4443" gradientUnits="userSpaceOnUse">
<stop stop-color="#00A0FF"/>
<stop offset="0.00657" stop-color="#00A1FF"/>
<stop offset="0.2601" stop-color="#00BEFF"/>
<stop offset="0.5122" stop-color="#00D2FF"/>
<stop offset="0.7604" stop-color="#00DFFF"/>
<stop offset="1" stop-color="#00E3FF"/>
</linearGradient>
<linearGradient id="paint1_linear_15_4" x1="38.74" y1="22.0585" x2="11.3923" y2="22.0585" gradientUnits="userSpaceOnUse">
<stop stop-color="#FFE000"/>
<stop offset="0.4087" stop-color="#FFBD00"/>
<stop offset="0.7754" stop-color="#FFA500"/>
<stop offset="1" stop-color="#FF9C00"/>
</linearGradient>
<linearGradient id="paint2_linear_15_4" x1="28.5698" y1="26.5856" x2="8.12055" y2="46.9183" gradientUnits="userSpaceOnUse">
<stop stop-color="#FF3A44"/>
<stop offset="1" stop-color="#C31162"/>
</linearGradient>
<linearGradient id="paint3_linear_15_4" x1="8.76783" y1="6.03466" x2="17.8816" y2="15.1104" gradientUnits="userSpaceOnUse">
<stop stop-color="#32A071"/>
<stop offset="0.0685" stop-color="#2DA771"/>
<stop offset="0.4762" stop-color="#15CF74"/>
<stop offset="0.8009" stop-color="#06E775"/>
<stop offset="1" stop-color="#00F076"/>
</linearGradient>
<linearGradient id="paint4_linear_15_4" x1="28.5598" y1="29.8297" x2="12.1829" y2="46.233" gradientUnits="userSpaceOnUse">
<stop stop-color="#CC2E36"/>
<stop offset="1" stop-color="#9C0E4E"/>
</linearGradient>
<linearGradient id="paint5_linear_15_4" x1="13.6367" y1="9.35731" x2="3.00535" y2="20.0059" gradientUnits="userSpaceOnUse">
<stop stop-color="#008DE0"/>
<stop offset="0.00657" stop-color="#008DE0"/>
<stop offset="0.2601" stop-color="#00A7E0"/>
<stop offset="0.5122" stop-color="#00B8E0"/>
<stop offset="0.7604" stop-color="#00C4E0"/>
<stop offset="1" stop-color="#00C7E0"/>
</linearGradient>
<linearGradient id="paint6_linear_15_4" x1="38.74" y1="22.1399" x2="11.3923" y2="22.1399" gradientUnits="userSpaceOnUse">
<stop stop-color="#E0C500"/>
<stop offset="0.4087" stop-color="#E0A600"/>
<stop offset="0.7754" stop-color="#E09100"/>
<stop offset="1" stop-color="#E08900"/>
</linearGradient>
<linearGradient id="paint7_linear_15_4" x1="38.74" y1="22.14" x2="11.3923" y2="22.14" gradientUnits="userSpaceOnUse">
<stop stop-color="#FFE840"/>
<stop offset="0.4087" stop-color="#FFCE40"/>
<stop offset="0.7754" stop-color="#FFBC40"/>
<stop offset="1" stop-color="#FFB540"/>
</linearGradient>
<linearGradient id="paint8_linear_15_4" x1="13.6251" y1="9.37657" x2="3.38529" y2="19.1886" gradientUnits="userSpaceOnUse">
<stop stop-color="#40B8FF"/>
<stop offset="0.00657" stop-color="#40B9FF"/>
<stop offset="0.2601" stop-color="#40CEFF"/>
<stop offset="0.5122" stop-color="#40DDFF"/>
<stop offset="0.7604" stop-color="#40E7FF"/>
<stop offset="1" stop-color="#40EAFF"/>
</linearGradient>
<linearGradient id="paint9_linear_15_4" x1="8.74748" y1="9.0007" x2="16.0605" y2="16.3256" gradientUnits="userSpaceOnUse">
<stop stop-color="#65B895"/>
<stop offset="0.0685" stop-color="#62BD95"/>
<stop offset="0.4762" stop-color="#50DB97"/>
<stop offset="0.8009" stop-color="#44ED98"/>
<stop offset="1" stop-color="#40F498"/>
</linearGradient>
</defs>
</svg>
