<svg width="453" height="130" viewBox="0 0 453 130" fill="none"
xmlns="http://www.w3.org/2000/svg">
<path d="M122.875 128.286H98.3515V40.5339C98.3515 38.82 98.0085 37.2204 97.3225 35.735C96.6937 34.2496 95.8077 32.9642 94.6644 31.8787C93.5783 30.7361 92.2921 29.8506 90.8058 29.2221C89.3195 28.5937 87.7189 28.2795 86.004 28.2795C84.289 28.2795 82.6884 28.5937 81.2022 29.2221C79.7159 29.8506 78.4011 30.7361 77.2578 31.8787C76.1717 32.9642 75.3142 34.2496 74.6854 35.735C74.0566 37.2204 73.7422 38.82 73.7422 40.5339V128.286H49.1329V40.5339C49.1329 38.82 48.8185 37.2204 48.1897 35.735C47.5609 34.2496 46.6748 32.9642 45.5315 31.8787C44.4454 30.7361 43.1592 29.8506 41.6729 29.2221C40.1866 28.5937 38.586 28.2795 36.8711 28.2795C35.1562 28.2795 33.5556 28.5937 32.0693 29.2221C30.583 29.8506 29.2682 30.7361 28.1249 31.8787C27.0388 32.9642 26.1813 34.2496 25.5525 35.735C24.9237 37.2204 24.6093 38.82 24.6093 40.5339V128.286H0V40.5339C0 35.4494 0.943214 30.679 2.82964 26.2228C4.77323 21.7095 7.4028 17.7961 10.7183 14.4825C14.091 11.1118 18.0068 8.48385 22.4656 6.59855C26.9816 4.65612 31.7835 3.6849 36.8711 3.6849C41.4443 3.6849 45.8459 4.51329 50.0761 6.17007C54.3063 7.76972 58.1077 10.1121 61.4804 13.1971C64.8531 10.1121 68.626 7.76972 72.799 6.17007C77.0292 4.51329 81.4308 3.6849 86.004 3.6849C91.0916 3.6849 95.8649 4.65612 100.324 6.59855C104.84 8.48385 108.755 11.1118 112.071 14.4825C115.444 17.7961 118.073 21.7095 119.96 26.2228C121.903 30.679 122.875 35.4494 122.875 40.5339V128.286Z" fill="#FFFFFF"/>
<path d="M177.924 105.834C178.839 106.12 179.754 106.319 180.668 106.434C181.583 106.491 182.498 106.519 183.412 106.519C185.699 106.519 187.9 106.205 190.015 105.577C192.13 104.948 194.102 104.063 195.931 102.92C197.818 101.721 199.475 100.292 200.905 98.6355C202.391 96.9216 203.591 95.0363 204.506 92.9796L221.655 110.204C219.483 113.289 216.968 116.06 214.11 118.517C211.309 120.973 208.25 123.059 204.935 124.773C201.676 126.486 198.218 127.772 194.559 128.629C190.958 129.543 187.242 130 183.412 130C176.953 130 170.865 128.8 165.148 126.401C159.489 124.001 154.516 120.659 150.228 116.374C145.998 112.09 142.654 107.005 140.196 101.121C137.738 95.1791 136.509 88.6662 136.509 81.5821C136.509 74.3265 137.738 67.6994 140.196 61.7007C142.654 55.702 145.998 50.5889 150.228 46.3612C154.516 42.1336 159.489 38.8486 165.148 36.5063C170.865 34.1639 176.953 32.9927 183.412 32.9927C187.242 32.9927 190.987 33.4498 194.645 34.3639C198.304 35.278 201.762 36.592 205.02 38.3059C208.336 40.0198 211.423 42.1336 214.281 44.6473C217.139 47.1039 219.655 49.8748 221.827 52.9598L177.924 105.834ZM189.929 57.5873C188.843 57.1874 187.757 56.9303 186.671 56.8161C185.642 56.7018 184.556 56.6447 183.412 56.6447C180.211 56.6447 177.181 57.2446 174.323 58.4443C171.522 59.5869 169.064 61.2437 166.949 63.4146C164.891 65.5856 163.262 68.2136 162.061 71.2986C160.861 74.3265 160.261 77.7543 160.261 81.5821C160.261 82.439 160.289 83.4102 160.346 84.4957C160.461 85.5812 160.604 86.6952 160.775 87.8378C161.004 88.9233 161.261 89.9802 161.547 91.0086C161.833 92.0369 162.204 92.951 162.662 93.7508L189.929 57.5873Z" fill="#FFFFFF"/>
<path d="M321.893 128.286H316.234L307.145 115.689C304.915 117.688 302.543 119.574 300.028 121.345C297.57 123.059 294.969 124.573 292.225 125.887C289.481 127.143 286.651 128.143 283.736 128.886C280.878 129.629 277.962 130 274.99 130C268.53 130 262.442 128.915 256.726 126.744C251.066 124.573 246.093 121.43 241.806 117.317C237.576 113.147 234.232 108.062 231.773 102.063C229.315 96.0646 228.086 89.2375 228.086 81.5821C228.086 74.4408 229.315 67.8994 231.773 61.9578C234.232 55.9591 237.576 50.8174 241.806 46.5326C246.093 42.2479 251.066 38.9343 256.726 36.592C262.442 34.1925 268.53 32.9927 274.99 32.9927C277.962 32.9927 280.906 33.3641 283.822 34.1068C286.737 34.8495 289.567 35.8778 292.311 37.1918C295.055 38.5058 297.656 40.0483 300.114 41.8194C302.629 43.5904 304.973 45.5043 307.145 47.561L316.234 36.6777H321.893V128.286ZM298.313 81.5821C298.313 78.3828 297.684 75.2977 296.426 72.327C295.226 69.2991 293.568 66.6425 291.453 64.3573C289.338 62.0149 286.851 60.1582 283.993 58.7871C281.192 57.3588 278.191 56.6447 274.99 56.6447C271.789 56.6447 268.759 57.1874 265.901 58.2729C263.1 59.3584 260.641 60.958 258.526 63.0719C256.468 65.1857 254.839 67.8137 253.639 70.9558C252.438 74.0409 251.838 77.5829 251.838 81.5821C251.838 85.5812 252.438 89.1518 253.639 92.294C254.839 95.379 256.468 97.9785 258.526 100.092C260.641 102.206 263.1 103.806 265.901 104.891C268.759 105.977 271.789 106.519 274.99 106.519C278.191 106.519 281.192 105.834 283.993 104.463C286.851 103.034 289.338 101.178 291.453 98.8926C293.568 96.5502 295.226 93.8937 296.426 90.9229C297.684 87.895 298.313 84.7814 298.313 81.5821Z" fill="#FFFFFF"/>
<path d="M363.395 128.286H339.814V0H363.395V128.286Z" fill="#FFFFFF"/>
<path d="M453 128.286H376.428L415.1 59.9868H376.428V36.6777H453L414.328 104.977H453V128.286Z" fill="#FFFFFF"/>
</svg>
