<svg width="100" height="100" viewBox="0 0 100 100" fill="none" xmlns="http://www.w3.org/2000/svg">
<path d="M54.2578 66.6014H43.2813C42.2266 66.6014 41.3281 67.4608 41.3281 68.5546V97.3437C41.3281 98.3984 42.1875 99.2968 43.2813 99.2968H54.2578C55.3125 99.2968 56.2109 98.4375 56.2109 97.3437V68.5546C56.1719 67.4608 55.3125 66.6014 54.2578 66.6014ZM52.3047 95.3906H45.1953V70.4686H52.3047V95.3906Z" fill="#D1003F"/>
<path d="M95.5861 60.8202H84.6095C83.5548 60.8202 82.6564 61.6796 82.6564 62.7733V97.3827C82.6564 98.4374 83.5157 99.3359 84.6095 99.3359H95.5861C96.6408 99.3359 97.5392 98.4765 97.5392 97.3827V62.7733C97.5001 61.6796 96.6408 60.8202 95.5861 60.8202ZM93.6329 95.3905H86.5236V64.6483H93.6329V95.3905Z" fill="#D1003F"/>
<path d="M74.9218 48.2031H63.9452C62.8905 48.2031 61.9921 49.0625 61.9921 50.1562V97.3437C61.9921 98.3984 62.8514 99.2968 63.9452 99.2968H74.9218C75.9765 99.2968 76.8749 98.4374 76.8749 97.3437V50.1172C76.8358 49.0625 75.9765 48.2031 74.9218 48.2031ZM72.9686 95.3906H65.8593V52.0703H72.9686V95.3906Z" fill="#D1003F"/>
<path d="M22.3047 24.1797C28.7891 24.1797 34.0234 18.9062 34.0234 12.4609C34.0234 6.01562 28.75 0.742188 22.3047 0.742188C15.8203 0.742188 10.5859 6.01562 10.5859 12.4609C10.5859 18.9062 15.8203 24.1797 22.3047 24.1797ZM22.3047 4.60938C26.6406 4.60938 30.1562 8.125 30.1562 12.4609C30.1562 16.7969 26.6406 20.3125 22.3047 20.3125C17.9687 20.3125 14.4141 16.7969 14.4141 12.4609C14.4141 8.125 17.9687 4.60938 22.3047 4.60938Z" fill="#D1003F"/>
<path d="M36.5625 38.9063C35.4687 38.8282 34.5703 39.6485 34.4922 40.7032L32.6562 67.2657C32.6562 67.3439 32.6172 67.422 32.6172 67.461L30.9375 93.2814C30.8594 94.4533 29.8828 95.3517 28.7109 95.3517H15.8594C14.6875 95.3517 13.7109 94.4533 13.6328 93.2814L11.9531 67.461C11.9141 66.6407 11.3672 65.9767 10.5859 65.7423C8.08594 64.961 8.08594 64.961 7.89062 62.2267L6.36719 34.8438V34.5313H6.40625C8.67187 33.8282 12.6172 32.6173 14.5312 31.9923L20.9766 38.047C21.7187 38.7501 22.8906 38.7501 23.6328 38.047L30.1562 31.9141L49.2187 36.211C49.4922 36.2891 49.7656 36.2891 50.039 36.211L67.9297 32.5391C68.9843 32.3438 69.6484 31.2891 69.4531 30.2735C69.2578 29.2188 68.2031 28.5548 67.1875 28.7501L49.6875 32.3438L30 27.8907C29.375 27.7344 28.7109 27.9298 28.2422 28.3594L22.3047 33.9845L16.3281 28.3594C15.8203 27.8907 15.0781 27.6954 14.4141 27.9298C14.4141 27.9298 8.35937 29.8829 5.27344 30.7813C3.51562 31.3282 2.5 32.6954 2.5 34.5313C2.5 34.6876 2.5 35.0001 2.5 35.0391L4.02344 62.0704L4.0625 62.5392C4.33594 66.6407 5.03906 67.8907 8.20312 69.0626L9.80468 93.5939C10 96.797 12.6953 99.297 15.8984 99.297H28.75C31.9531 99.297 34.6094 96.797 34.8437 93.5939L36.5234 67.9689C36.5234 67.8907 36.5234 67.8517 36.5625 67.7735L38.3984 41.0157C38.3984 39.922 37.6172 38.9845 36.5625 38.9063Z" fill="#D1003F"/>
</svg>
