<svg width="461" height="431" viewBox="0 0 461 431" fill="none" xmlns="http://www.w3.org/2000/svg">
<g clip-path="url(#clip0_55_430)">
<path d="M377.718 366.041C390.846 340.175 394.859 314.255 389.637 289.007C385.034 266.771 373.593 245.113 354.708 222.836C354.348 221.011 353.847 219.217 353.21 217.469C350.231 209.412 344.162 203.285 338.244 197.313C334.197 193.228 330.369 189.363 327.682 185.065C325.287 181.236 323.655 176.335 321.919 171.149C319.348 163.468 316.43 154.756 310.258 147.919C304.816 141.901 297.389 138.404 290.213 135.025C284.691 132.469 279.514 129.999 275.341 126.565C271.886 123.722 268.866 119.817 265.63 115.644C260.637 109.2 255.494 102.553 247.776 98.7675C240.059 94.9823 231.734 94.9718 223.614 94.9198C218.345 94.8985 213.376 94.8755 209.111 93.7916C204.7 92.6671 200.213 90.2183 195.457 87.6373L195.362 87.5592C188.494 83.8067 181.342 79.8905 173.14 79.2844C164.744 78.6587 156.712 81.5722 149.635 84.1481L149.535 84.1851C144.508 86.023 139.79 87.7167 135.44 88.1142C130.532 88.5384 125.24 87.6134 119.627 86.643C112.092 85.334 104.301 83.9733 96.757 85.9067C87.5525 88.273 80.5509 94.1813 74.3366 99.4352C70.7126 102.497 67.2901 105.386 64.0467 107.041C59.6446 109.148 55.1045 110.955 50.4576 112.45L50.278 112.511C41.4636 115.516 32.4159 118.647 27.6846 125.777C18.4142 139.828 25.2351 153.839 33.7695 163.952C32.2539 169.611 32.4067 175.59 34.2097 181.169C36.0127 186.749 39.3891 191.692 43.9326 195.403L303.438 408.913C303.759 409.176 304.08 409.44 304.425 409.674L304.769 409.958C317.956 419.873 334.534 418.395 349.172 405.988C359.704 397.06 376.767 367.922 377.718 366.041ZM38.5622 132.958C40.8289 129.525 47.7767 127.131 54.5664 124.795L54.693 124.751C59.9192 123.072 65.0224 121.033 69.9662 118.65C74.5613 116.308 78.7488 112.816 82.7882 109.371C88.1508 104.837 93.6991 100.139 99.9874 98.5337C104.821 97.2928 110.929 98.3519 117.392 99.475C123.558 100.572 129.969 101.662 136.545 101.099C142.591 100.587 148.378 98.4902 153.975 96.4554L154.075 96.4185C160.209 94.1899 166.549 91.8816 172.152 92.3072C177.539 92.7046 183.145 95.7657 189.085 99.0129L189.186 99.096C194.432 101.952 199.869 104.904 205.87 106.442C211.692 107.922 217.709 107.953 223.539 107.958C230.464 108.011 236.965 108.072 241.999 110.484C247.033 112.896 250.982 118.104 255.282 123.659C258.787 128.172 262.405 132.849 266.988 136.62C272.427 141.094 278.617 144.001 284.602 146.818C290.89 149.775 296.806 152.555 300.51 156.646C304.85 161.45 307.198 168.47 309.467 175.247C311.368 180.936 313.335 186.809 316.552 191.95C319.98 197.464 324.529 202.051 328.908 206.47L328.967 206.518C334.06 211.703 338.902 216.551 340.9 221.952C341.443 223.461 341.827 225.022 342.044 226.611C342.399 229.186 342.521 231.788 342.408 234.385C342.329 237.083 342.097 239.833 341.871 242.54L341.861 242.661C341.371 248.46 340.856 254.458 341.644 260.373C342.451 266.484 344.518 272.26 346.524 277.856C349.055 284.908 351.439 291.582 350.854 297.69C350.269 303.798 346.716 309.81 342.95 316.214C339.905 321.392 336.752 326.749 334.84 332.691C332.928 338.632 332.418 344.722 331.9 350.687C331.264 358.116 330.644 365.149 327.583 370.612C327.412 370.929 327.225 371.242 327.031 371.55C325.063 374.632 322.15 377.374 318.822 380.063C318.119 380.627 317.405 381.193 316.674 381.754C316.126 382.178 315.567 382.603 315.009 383.028C314.658 383.296 314.302 383.56 313.952 383.828C313.83 383.916 313.708 384.015 313.586 384.104C313.205 384.397 312.852 384.693 312.506 385.004L312.29 385.194C311.965 385.493 311.651 385.802 311.36 386.119C311.312 386.178 311.258 386.244 311.209 386.303C310.956 386.611 310.702 386.919 310.448 387.227L310.341 387.358C310.073 387.684 309.834 388.034 309.601 388.379L309.425 388.592C309.202 388.936 308.979 389.279 308.768 389.632L308.681 389.739C308.489 390.068 308.294 390.415 308.134 390.73L308.028 390.931C307.844 391.277 307.671 391.632 307.503 391.981C307.455 392.04 307.435 392.124 307.399 392.193C307.236 392.536 307.059 392.907 306.932 393.22C306.663 392.76 306.41 392.293 306.177 391.814L305.971 391.386C305.8 391.026 305.645 390.67 305.499 390.302L305.319 389.856C305.141 389.371 304.967 388.88 304.821 388.392L304.785 388.363C304.631 387.848 304.505 387.337 304.394 386.818L304.305 386.357C304.228 385.966 304.163 385.574 304.104 385.198C304.083 385.042 304.051 384.887 304.041 384.729C303.98 384.211 303.935 383.648 303.909 383.159C303.89 382.627 303.892 382.092 303.916 381.554C303.917 381.396 303.929 381.248 303.941 381.088C303.962 380.688 303.994 380.297 304.037 379.895L304.094 379.425C304.168 378.9 304.258 378.367 304.388 377.858C304.501 377.334 304.645 376.807 304.802 376.29C304.841 376.134 304.892 375.987 304.943 375.829C305.069 375.446 305.211 375.056 305.354 374.687L305.528 374.234C305.746 373.727 305.97 373.226 306.221 372.727C306.669 371.857 307.18 371.022 307.75 370.227C307.867 370.085 307.989 369.937 308.058 369.755C326.721 338.234 334.983 301.626 331.675 265.116C328.367 228.605 313.656 194.041 289.625 166.317C283.207 158.955 276.191 152.135 268.649 145.928C236.772 119.702 196.657 105.586 155.409 106.082C114.161 106.578 74.4437 121.654 43.2927 148.638C42.8146 149.05 42.3494 149.482 41.9069 149.923C41.7752 150.083 41.6484 150.237 41.4801 150.357C41.2118 150.683 40.8902 150.965 40.6042 151.277C40.5652 151.324 40.5261 151.371 40.4823 151.425C36.9844 146.31 34.286 139.498 38.5622 132.958ZM52.2228 185.327C50.2524 183.699 48.6595 181.663 47.5548 179.36C46.4501 177.056 45.8601 174.541 45.8259 171.988C45.7916 169.435 46.3139 166.906 47.3564 164.577C48.3989 162.248 49.9367 160.175 51.8628 158.502C71.4962 141.518 94.9423 129.521 120.215 123.526C145.489 117.531 171.844 117.716 197.051 124.064C222.257 130.412 245.572 142.737 265.02 159.994C284.469 177.252 299.478 198.934 308.778 223.204C309.904 226.119 310.933 229.083 311.866 232.096C315.34 243.186 317.619 254.614 318.663 266.185C321.835 299.895 314.246 333.725 296.987 362.823C296.123 364.063 295.34 365.358 294.643 366.7C294.374 367.233 294.116 367.776 293.869 368.319C293.797 368.478 293.731 368.643 293.66 368.803C293.487 369.207 293.319 369.616 293.163 370.024C293.102 370.182 293.036 370.347 292.981 370.511C292.774 371.065 292.583 371.624 292.414 372.181C292.244 372.737 292.092 373.298 291.946 373.863L291.831 374.365C291.731 374.789 291.64 375.202 291.557 375.63C291.524 375.802 291.486 375.97 291.459 376.136C291.357 376.708 291.265 377.279 291.191 377.854C291.116 378.428 291.063 379.001 291.021 379.573L290.989 380.083C290.96 380.506 290.942 380.939 290.929 381.366L290.917 381.684L52.2228 185.327ZM340.722 396.014C335.799 400.183 326.826 405.861 317.421 402.228C317.475 402.162 317.487 402.063 317.522 401.983L318.164 400.453C318.782 398.743 319.592 397.109 320.579 395.582C320.854 395.202 321.181 394.862 321.549 394.572C322.372 393.947 323.196 393.333 324.018 392.697C329.365 388.618 334.617 384.232 338.254 378.408C338.532 377.961 338.809 377.503 339.063 377.036C340.907 373.662 342.252 370.038 343.057 366.277C344.016 361.525 344.649 356.713 344.952 351.874C345.203 349.148 345.42 346.464 345.766 343.926C346.075 341.494 346.591 339.092 347.311 336.749C348.779 332.182 351.441 327.663 354.247 322.885C358.584 315.52 363.036 307.931 363.88 299.004C364.724 290.077 361.744 281.622 358.838 273.526C356.993 268.351 355.248 263.466 354.619 258.724C354.548 258.169 354.478 257.614 354.442 257.028C354.424 256.844 354.422 256.653 354.409 256.463C354.392 256.072 354.36 255.688 354.366 255.305L354.356 254.591C354.353 254.231 354.341 253.883 354.343 253.517L354.36 252.736C354.364 252.391 354.368 252.047 354.383 251.691L354.415 250.853L354.467 249.822L354.523 248.944L354.59 247.906L354.656 247.026L354.794 245.927C354.814 245.625 354.844 245.322 354.878 245.002L354.945 244.232C366.396 260.213 373.61 275.84 376.879 291.639C381.55 314.228 378.021 336.631 366.101 360.11C364.512 363.106 348.775 389.191 340.722 396.014Z" fill="black" fill-opacity="0.03"/>
<path d="M128.294 161.998C127.581 162.022 126.908 162.327 126.421 162.847C125.934 163.366 125.673 164.057 125.695 164.77C125.739 166.216 125.312 167.637 124.477 168.818C123.642 169.999 122.445 170.876 121.067 171.316C119.688 171.756 118.203 171.735 116.836 171.257C115.469 170.779 114.294 169.869 113.488 168.666C112.683 167.462 112.29 166.03 112.37 164.585C112.45 163.14 112.999 161.762 113.932 160.657C114.866 159.552 116.134 158.782 117.545 158.462C118.957 158.143 120.434 158.291 121.755 158.885C122.079 159.043 122.432 159.135 122.792 159.155C123.152 159.175 123.512 159.122 123.851 159C124.19 158.878 124.501 158.688 124.765 158.444C125.029 158.199 125.241 157.903 125.389 157.575C125.536 157.246 125.616 156.891 125.623 156.531C125.631 156.171 125.566 155.812 125.432 155.477C125.298 155.143 125.099 154.838 124.845 154.582C124.591 154.325 124.288 154.122 123.955 153.985C121.565 152.909 118.89 152.639 116.336 153.216C113.782 153.794 111.486 155.187 109.796 157.186C108.107 159.185 107.115 161.681 106.971 164.295C106.827 166.91 107.538 169.502 108.998 171.679C110.457 173.857 112.585 175.501 115.06 176.364C117.535 177.226 120.223 177.26 122.716 176.461C125.21 175.661 127.373 174.071 128.881 171.931C130.388 169.792 131.157 167.218 131.07 164.601C131.06 164.247 130.979 163.9 130.834 163.577C130.688 163.255 130.481 162.965 130.223 162.723C129.964 162.481 129.661 162.292 129.33 162.168C128.999 162.043 128.647 161.986 128.294 161.998Z" fill="black" fill-opacity="0.03"/>
<path d="M208.839 269.009C206.707 265.932 203.456 263.81 199.782 263.096C196.108 262.382 192.303 263.133 189.181 265.189C186.059 267.245 183.867 270.442 183.075 274.096C182.283 277.75 182.953 281.572 184.943 284.742C185.088 284.959 185.262 285.155 185.459 285.326C185.958 285.733 186.587 285.948 187.23 285.932C187.874 285.915 188.49 285.668 188.967 285.236C189.443 284.803 189.748 284.214 189.827 283.575C189.905 282.936 189.751 282.29 189.393 281.754C188.417 280.277 187.902 278.545 187.911 276.776C187.92 275.007 188.454 273.282 189.445 271.819C190.436 270.355 191.839 269.219 193.477 268.553C195.115 267.888 196.915 267.724 198.648 268.082C200.381 268.439 201.97 269.303 203.214 270.562C204.458 271.822 205.3 273.422 205.635 275.159C205.97 276.896 205.782 278.693 205.095 280.322C204.408 281.95 203.253 283.338 201.776 284.309C200.645 285.062 199.355 285.541 198.006 285.709C197.655 285.754 197.317 285.867 197.011 286.042C196.704 286.218 196.435 286.451 196.219 286.731C195.783 287.295 195.59 288.009 195.681 288.717C195.772 289.424 196.14 290.067 196.705 290.504C197.27 290.941 197.985 291.136 198.693 291.046C201.102 290.737 203.393 289.82 205.348 288.382C207.304 286.944 208.861 285.031 209.872 282.825C210.883 280.618 211.316 278.189 211.129 275.767C210.942 273.345 210.142 271.009 208.803 268.98L208.839 269.009Z" fill="black" fill-opacity="0.03"/>
<path d="M284.202 264.509C284.228 262.157 283.674 259.834 282.589 257.746C281.503 255.657 279.92 253.867 277.979 252.535C276.037 251.202 273.798 250.368 271.46 250.107C269.121 249.845 266.755 250.163 264.57 251.034C262.386 251.905 260.451 253.301 258.936 255.098C257.421 256.896 256.374 259.04 255.887 261.34C255.399 263.641 255.487 266.027 256.142 268.287C256.797 270.547 257.999 272.612 259.641 274.299C260.023 274.682 260.413 275.043 260.822 275.38C263.33 277.446 266.468 278.594 269.715 278.632C270.429 278.642 271.118 278.368 271.629 277.87C272.14 277.373 272.432 276.693 272.441 275.979C272.45 275.265 272.175 274.577 271.676 274.065C271.178 273.553 270.497 273.26 269.783 273.25C267.847 273.22 265.972 272.562 264.442 271.374C262.911 270.185 261.808 268.532 261.299 266.664C260.791 264.796 260.903 262.814 261.621 261.017C262.338 259.22 263.621 257.707 265.276 256.705C266.931 255.703 268.868 255.267 270.794 255.463C272.721 255.659 274.532 256.476 275.955 257.791C277.378 259.106 278.335 260.847 278.681 262.752C279.028 264.657 278.745 266.622 277.876 268.35C277.711 268.665 277.611 269.011 277.58 269.365C277.55 269.72 277.59 270.078 277.699 270.417C277.808 270.757 277.984 271.071 278.215 271.342C278.447 271.614 278.73 271.836 279.048 271.997C279.366 272.158 279.713 272.254 280.069 272.28C280.424 272.306 280.781 272.261 281.119 272.148C281.457 272.034 281.768 271.855 282.036 271.62C282.303 271.385 282.521 271.099 282.677 270.779C283.661 268.835 284.183 266.69 284.202 264.509Z" fill="black" fill-opacity="0.03"/>
<path d="M201.57 188.095C199.622 186.523 197.382 185.353 194.979 184.653C192.577 183.952 190.06 183.735 187.575 184.015C187.213 184.038 186.859 184.135 186.536 184.298C186.212 184.462 185.926 184.689 185.693 184.967C185.46 185.244 185.285 185.566 185.18 185.913C185.075 186.26 185.041 186.624 185.08 186.985C185.12 187.345 185.231 187.694 185.409 188.011C185.587 188.327 185.827 188.604 186.114 188.826C186.402 189.047 186.731 189.208 187.083 189.299C187.434 189.39 187.8 189.409 188.158 189.355C191.107 189.032 194.082 189.677 196.633 191.193C199.185 192.709 201.176 195.014 202.304 197.758C203.431 200.503 203.635 203.539 202.885 206.406C202.134 209.274 200.47 211.818 198.143 213.654C195.817 215.49 192.954 216.518 189.988 216.583C187.023 216.647 184.115 215.745 181.705 214.012C179.295 212.279 177.513 209.81 176.629 206.978C175.745 204.146 175.807 201.104 176.806 198.313C177.047 197.642 177.011 196.902 176.706 196.256C176.401 195.609 175.852 195.111 175.18 194.869C174.508 194.627 173.767 194.661 173.121 194.965C172.476 195.269 171.978 195.817 171.737 196.488C170.417 200.181 170.271 204.193 171.316 207.976C172.362 211.76 174.55 215.13 177.581 217.627L177.771 217.784C181.713 220.944 186.748 222.412 191.767 221.864C196.786 221.315 201.378 218.796 204.533 214.86C207.689 210.923 209.149 205.893 208.592 200.875C208.035 195.856 205.508 191.262 201.565 188.101L201.57 188.095Z" fill="black" fill-opacity="0.03"/>
<path d="M213.755 172.426C213.888 172.753 214.085 173.051 214.333 173.302C214.582 173.552 214.878 173.751 215.204 173.887C215.53 174.023 215.879 174.094 216.232 174.094C216.585 174.094 216.934 174.025 217.26 173.889C219.347 173.029 221.692 173.033 223.778 173.9C225.865 174.767 227.524 176.426 228.389 178.513C228.663 179.172 229.187 179.696 229.847 179.969C230.506 180.242 231.246 180.242 231.905 179.97C232.564 179.697 233.087 179.174 233.359 178.515C233.631 177.857 233.63 177.116 233.356 176.457C232.658 174.771 231.634 173.238 230.344 171.946C229.054 170.654 227.522 169.629 225.836 168.928C224.149 168.228 222.342 167.866 220.518 167.864C218.693 167.861 216.886 168.218 215.2 168.915C214.874 169.049 214.578 169.247 214.328 169.497C214.079 169.746 213.881 170.043 213.747 170.369C213.613 170.695 213.544 171.045 213.546 171.398C213.547 171.751 213.618 172.101 213.755 172.426Z" fill="black" fill-opacity="0.03"/>
<path d="M172.223 144.677C171.589 142.157 170.462 139.786 168.908 137.703C167.354 135.619 165.403 133.862 163.167 132.535C162.864 132.347 162.526 132.222 162.174 132.166C161.821 132.11 161.462 132.125 161.116 132.21C160.769 132.294 160.443 132.446 160.157 132.658C159.87 132.87 159.629 133.136 159.446 133.442C159.264 133.748 159.144 134.087 159.094 134.44C159.044 134.793 159.065 135.152 159.155 135.497C159.246 135.842 159.403 136.166 159.62 136.45C159.836 136.733 160.107 136.971 160.416 137.149C163.698 139.108 166.07 142.289 167.009 145.992C167.948 149.695 167.379 153.617 165.425 156.895C165.091 157.447 164.966 158.102 165.075 158.738C165.183 159.375 165.518 159.952 166.016 160.364C166.116 160.455 166.221 160.542 166.331 160.622C166.635 160.804 166.972 160.923 167.322 160.974C167.673 161.025 168.03 161.006 168.372 160.919C168.715 160.831 169.037 160.677 169.32 160.465C169.603 160.253 169.841 159.987 170.021 159.683C171.365 157.454 172.252 154.979 172.63 152.403C173.008 149.827 172.87 147.2 172.223 144.677Z" fill="black" fill-opacity="0.03"/>
<path d="M267.907 313.949C267.594 313.785 267.252 313.685 266.901 313.653C266.549 313.622 266.195 313.659 265.859 313.765C265.522 313.87 265.21 314.041 264.94 314.268C264.67 314.494 264.447 314.771 264.285 315.084C263.77 316.077 263.065 316.958 262.209 317.676C261.353 318.395 260.363 318.938 259.296 319.274C258.23 319.609 257.107 319.731 255.992 319.632C254.877 319.533 253.793 319.215 252.801 318.696C252.487 318.529 252.144 318.425 251.79 318.391C251.437 318.357 251.08 318.393 250.741 318.498C250.402 318.602 250.087 318.773 249.814 319C249.541 319.227 249.316 319.506 249.152 319.821C248.988 320.135 248.888 320.479 248.858 320.833C248.827 321.187 248.867 321.543 248.975 321.881C249.084 322.22 249.258 322.533 249.488 322.804C249.718 323.075 249.999 323.298 250.315 323.46C251.934 324.309 253.704 324.831 255.523 324.996C257.343 325.161 259.176 324.965 260.919 324.421C262.662 323.876 264.28 322.993 265.68 321.822C267.079 320.651 268.234 319.215 269.077 317.596C269.243 317.281 269.343 316.936 269.374 316.581C269.404 316.226 269.364 315.868 269.255 315.529C269.146 315.19 268.97 314.875 268.739 314.604C268.508 314.333 268.225 314.11 267.907 313.949Z" fill="black" fill-opacity="0.03"/>
<path d="M231.852 234.419C233.252 235.573 234.963 236.286 236.767 236.469C238.571 236.652 240.388 236.296 241.988 235.445C243.588 234.595 244.899 233.289 245.755 231.693C246.611 230.097 246.974 228.282 246.798 226.477C246.622 224.673 245.915 222.961 244.765 221.557C243.616 220.153 242.077 219.121 240.342 218.591C238.608 218.061 236.755 218.057 235.02 218.579C233.285 219.101 231.744 220.127 230.593 221.526C229.053 223.401 228.321 225.811 228.557 228.228C228.793 230.645 229.978 232.872 231.852 234.419ZM240.069 224.432C240.65 224.907 241.076 225.544 241.294 226.262C241.513 226.979 241.513 227.745 241.296 228.462C241.079 229.179 240.654 229.815 240.074 230.29C239.495 230.764 238.787 231.056 238.041 231.128C237.294 231.2 236.543 231.049 235.882 230.694C235.221 230.339 234.68 229.796 234.328 229.134C233.975 228.471 233.827 227.72 233.902 226.974C233.977 226.229 234.272 225.522 234.749 224.945C235.387 224.173 236.304 223.686 237.301 223.59C238.299 223.494 239.294 223.796 240.069 224.432Z" fill="black" fill-opacity="0.03"/>
<path d="M143.359 212.272C141.959 211.118 140.248 210.404 138.443 210.222C136.639 210.039 134.821 210.396 133.221 211.247C131.621 212.097 130.31 213.404 129.455 215.001C128.599 216.598 128.236 218.413 128.413 220.218C128.59 222.022 129.299 223.735 130.449 225.138C131.599 226.542 133.139 227.573 134.874 228.102C136.61 228.631 138.462 228.634 140.198 228.11C141.933 227.587 143.473 226.56 144.623 225.16C146.16 223.284 146.891 220.875 146.654 218.459C146.417 216.043 145.232 213.819 143.359 212.272ZM135.142 222.259C134.562 221.784 134.135 221.148 133.917 220.431C133.698 219.714 133.698 218.948 133.914 218.231C134.131 217.514 134.556 216.878 135.135 216.404C135.714 215.929 136.421 215.636 137.167 215.564C137.912 215.491 138.663 215.641 139.324 215.995C139.986 216.349 140.527 216.891 140.88 217.553C141.234 218.214 141.383 218.965 141.309 219.71C141.236 220.456 140.943 221.162 140.467 221.74C139.83 222.514 138.912 223.004 137.914 223.101C136.915 223.198 135.918 222.896 135.142 222.259Z" fill="black" fill-opacity="0.03"/>
</g>
<defs>
<clipPath id="clip0_55_430">
<rect width="427.045" height="206.232" fill="white" transform="translate(131.03) rotate(39.446)"/>
</clipPath>
</defs>
</svg>
